<svg width="64" height="64" viewBox="0 0 64 64" fill="none" xmlns="http://www.w3.org/2000/svg">
<rect x="0.5" y="0.5" width="63" height="63" rx="19.5" fill="url(#paint0_linear_281_256)"/>
<mask id="mask0_281_256" style="mask-type:alpha" maskUnits="userSpaceOnUse" x="12" y="12" width="40" height="40">
<rect x="12" y="12" width="40" height="40" fill="#D9D9D9"/>
</mask>
<g mask="url(#mask0_281_256)">
<g filter="url(#filter0_d_281_256)">
<path d="M20 49.333C19 49.333 18.139 48.972 17.417 48.25C16.6943 47.528 16.333 46.667 16.333 45.667V21.125C16.333 20.097 16.6943 19.222 17.417 18.5C18.139 17.778 19 17.417 20 17.417H22.125V16.333C22.125 15.889 22.2917 15.5003 22.625 15.167C22.9583 14.8337 23.361 14.667 23.833 14.667C24.3057 14.667 24.7017 14.8337 25.021 15.167C25.3403 15.5003 25.5 15.889 25.5 16.333V17.417H38.5V16.333C38.5 15.889 38.6667 15.5003 39 15.167C39.3333 14.8337 39.7223 14.667 40.167 14.667C40.639 14.667 41.0417 14.8337 41.375 15.167C41.7083 15.5003 41.875 15.889 41.875 16.333V17.417H44C45 17.417 45.861 17.778 46.583 18.5C47.3057 19.222 47.667 20.097 47.667 21.125V45.667C47.667 46.667 47.3057 47.528 46.583 48.25C45.861 48.972 45 49.333 44 49.333H20ZM20 45.667H44V28.375H20V45.667ZM20 25.625H44V21.125H20V25.625Z" fill="url(#paint1_linear_281_256)"/>
</g>
<path d="M25.167 37.833L28.833 41.458C29.1943 41.8193 29.625 42 30.125 42C30.625 42 31.0557 41.8193 31.417 41.458L38.667 34.208C38.9723 33.9027 39.118 33.5417 39.104 33.125C39.09 32.7083 38.9443 32.3473 38.667 32.042C38.361 31.736 37.9997 31.576 37.583 31.562C37.1663 31.5487 36.8053 31.6947 36.5 32L30.125 38.417L27.375 35.667C27.0697 35.361 26.7017 35.208 26.271 35.208C25.8403 35.208 25.486 35.361 25.208 35.667C24.8747 35.9723 24.708 36.3333 24.708 36.75C24.708 37.1667 24.861 37.5277 25.167 37.833Z" fill="white" fill-opacity="0.7"/>
</g>
<rect x="0.5" y="0.5" width="63" height="63" rx="19.5" stroke="url(#paint2_linear_281_256)"/>
<defs>
<filter id="filter0_d_281_256" x="14.333" y="14.667" width="35.334" height="38.666" filterUnits="userSpaceOnUse" color-interpolation-filters="sRGB">
<feFlood flood-opacity="0" result="BackgroundImageFix"/>
<feColorMatrix in="SourceAlpha" type="matrix" values="0 0 0 0 0 0 0 0 0 0 0 0 0 0 0 0 0 0 127 0" result="hardAlpha"/>
<feOffset dy="2"/>
<feGaussianBlur stdDeviation="1"/>
<feComposite in2="hardAlpha" operator="out"/>
<feColorMatrix type="matrix" values="0 0 0 0 0 0 0 0 0 0.585442 0 0 0 0 0.991667 0 0 0 1 0"/>
<feBlend mode="normal" in2="BackgroundImageFix" result="effect1_dropShadow_281_256"/>
<feBlend mode="normal" in="SourceGraphic" in2="effect1_dropShadow_281_256" result="shape"/>
</filter>
<linearGradient id="paint0_linear_281_256" x1="32" y1="0" x2="32" y2="64" gradientUnits="userSpaceOnUse">
<stop stop-color="#42C6FF"/>
<stop offset="0.9999" stop-color="#0094FF"/>
<stop offset="1" stop-color="#0094FF"/>
</linearGradient>
<linearGradient id="paint1_linear_281_256" x1="32" y1="14.667" x2="32" y2="49.333" gradientUnits="userSpaceOnUse">
<stop stop-color="white"/>
<stop offset="1" stop-color="#BDE5FF"/>
</linearGradient>
<linearGradient id="paint2_linear_281_256" x1="32" y1="0" x2="32" y2="64" gradientUnits="userSpaceOnUse">
<stop stop-color="white" stop-opacity="0.6"/>
<stop offset="1" stop-color="white" stop-opacity="0"/>
</linearGradient>
</defs>
</svg>
