<svg width="64" height="64" viewBox="0 0 64 64" fill="none" xmlns="http://www.w3.org/2000/svg">
<rect x="0.5" y="0.5" width="63" height="63" rx="19.5" fill="url(#paint0_linear_281_272)"/>
<mask id="mask0_281_272" style="mask-type:alpha" maskUnits="userSpaceOnUse" x="12" y="12" width="40" height="40">
<rect x="12" y="12" width="40" height="40" fill="#D9D9D9"/>
</mask>
<g mask="url(#mask0_281_272)">
<g filter="url(#filter0_d_281_272)">
<path d="M21.5 40.792C23.1387 39.6527 24.8123 38.7707 26.521 38.146C28.229 37.5207 30.0553 37.208 32 37.208C33.9447 37.208 35.785 37.5277 37.521 38.167C39.257 38.8057 40.9167 39.6807 42.5 40.792C43.6113 39.4027 44.417 37.9927 44.917 36.562C45.417 35.132 45.667 33.6113 45.667 32C45.667 28.1667 44.3473 24.9307 41.708 22.292C39.0693 19.6527 35.8333 18.333 32 18.333C28.1667 18.333 24.9307 19.6527 22.292 22.292C19.6527 24.9307 18.333 28.1667 18.333 32C18.333 33.6113 18.583 35.132 19.083 36.562C19.583 37.9927 20.3887 39.4027 21.5 40.792ZM32 33.583C30.3333 33.583 28.9307 33.0137 27.792 31.875C26.6527 30.7363 26.083 29.3337 26.083 27.667C26.083 26.0003 26.6527 24.5973 27.792 23.458C28.9307 22.3193 30.3333 21.75 32 21.75C33.6667 21.75 35.0693 22.3193 36.208 23.458C37.3473 24.5973 37.917 26.0003 37.917 27.667C37.917 29.3337 37.3473 30.7363 36.208 31.875C35.0693 33.0137 33.6667 33.583 32 33.583ZM32 49.333C29.6113 49.333 27.3683 48.8817 25.271 47.979C23.1737 47.0763 21.3333 45.8333 19.75 44.25C18.1667 42.6667 16.9237 40.8263 16.021 38.729C15.1183 36.6317 14.667 34.3887 14.667 32C14.667 29.6113 15.1253 27.3683 16.042 25.271C16.9587 23.1737 18.2017 21.3403 19.771 19.771C21.3403 18.2017 23.1737 16.9587 25.271 16.042C27.3683 15.1253 29.6113 14.667 32 14.667C34.3887 14.667 36.6317 15.1253 38.729 16.042C40.8263 16.9587 42.6597 18.2017 44.229 19.771C45.7983 21.3403 47.0413 23.1737 47.958 25.271C48.8747 27.3683 49.333 29.6113 49.333 32C49.333 34.3887 48.8747 36.6317 47.958 38.729C47.0413 40.8263 45.7983 42.6597 44.229 44.229C42.6597 45.7983 40.8263 47.0413 38.729 47.958C36.6317 48.8747 34.3887 49.333 32 49.333ZM32 45.667C33.4447 45.667 34.8337 45.4587 36.167 45.042C37.5003 44.6253 38.8197 43.9447 40.125 43C38.7917 42.0833 37.4723 41.4027 36.167 40.958C34.861 40.514 33.472 40.292 32 40.292C30.528 40.292 29.146 40.514 27.854 40.958C26.5627 41.4027 25.2503 42.0833 23.917 43C25.2223 43.9447 26.5347 44.6253 27.854 45.042C29.1733 45.4587 30.5553 45.667 32 45.667ZM32 30.5C32.8053 30.5 33.479 30.236 34.021 29.708C34.5623 29.1807 34.833 28.5003 34.833 27.667C34.833 26.861 34.5623 26.1873 34.021 25.646C33.479 25.104 32.8053 24.833 32 24.833C31.1947 24.833 30.521 25.104 29.979 25.646C29.4377 26.1873 29.167 26.861 29.167 27.667C29.167 28.5003 29.4377 29.1807 29.979 29.708C30.521 30.236 31.1947 30.5 32 30.5Z" fill="url(#paint1_linear_281_272)"/>
</g>
</g>
<rect x="0.5" y="0.5" width="63" height="63" rx="19.5" stroke="url(#paint2_linear_281_272)"/>
<defs>
<filter id="filter0_d_281_272" x="12.667" y="14.667" width="38.666" height="38.666" filterUnits="userSpaceOnUse" color-interpolation-filters="sRGB">
<feFlood flood-opacity="0" result="BackgroundImageFix"/>
<feColorMatrix in="SourceAlpha" type="matrix" values="0 0 0 0 0 0 0 0 0 0 0 0 0 0 0 0 0 0 127 0" result="hardAlpha"/>
<feOffset dy="2"/>
<feGaussianBlur stdDeviation="1"/>
<feComposite in2="hardAlpha" operator="out"/>
<feColorMatrix type="matrix" values="0 0 0 0 0 0 0 0 0 0.585442 0 0 0 0 0.991667 0 0 0 1 0"/>
<feBlend mode="normal" in2="BackgroundImageFix" result="effect1_dropShadow_281_272"/>
<feBlend mode="normal" in="SourceGraphic" in2="effect1_dropShadow_281_272" result="shape"/>
</filter>
<linearGradient id="paint0_linear_281_272" x1="32" y1="0" x2="32" y2="64" gradientUnits="userSpaceOnUse">
<stop stop-color="#42C6FF"/>
<stop offset="0.9999" stop-color="#0094FF"/>
<stop offset="1" stop-color="#0094FF"/>
</linearGradient>
<linearGradient id="paint1_linear_281_272" x1="32" y1="14.667" x2="32" y2="49.333" gradientUnits="userSpaceOnUse">
<stop stop-color="white"/>
<stop offset="1" stop-color="#BDE5FF"/>
</linearGradient>
<linearGradient id="paint2_linear_281_272" x1="32" y1="0" x2="32" y2="64" gradientUnits="userSpaceOnUse">
<stop stop-color="white" stop-opacity="0.6"/>
<stop offset="1" stop-color="white" stop-opacity="0"/>
</linearGradient>
</defs>
</svg>
