<svg width="64" height="64" viewBox="0 0 64 64" fill="none" xmlns="http://www.w3.org/2000/svg">
<mask id="mask0_281_329" style="mask-type:alpha" maskUnits="userSpaceOnUse" x="0" y="0" width="64" height="64">
<rect width="64" height="64" fill="#D9D9D9"/>
</mask>
<g mask="url(#mask0_281_329)">
<path d="M27.9333 53.0667L23.2667 48.8667C18.5556 44.5556 14.3004 40.2667 10.5013 36C6.70044 31.7333 4.8 26.9778 4.8 21.7333C4.8 17.3778 6.24444 13.7555 9.13333 10.8667C12.0222 7.97777 15.6444 6.53333 20 6.53333C22.3111 6.53333 24.5111 6.99999 26.6 7.93332C28.6889 8.86666 30.4889 10.2 32 11.9333C33.5111 10.2 35.3004 8.86666 37.368 7.93332C39.4338 6.99999 41.6444 6.53333 44 6.53333C48.3111 6.53333 51.9218 7.97777 54.832 10.8667C57.744 13.7555 59.2 17.3778 59.2 21.7333C59.2 26.9778 57.2996 31.744 53.4987 36.032C49.6996 40.3218 45.4222 44.6222 40.6667 48.9333L36.0667 53.0667C34.9111 54.1778 33.5556 54.7333 32 54.7333C30.4444 54.7333 29.0889 54.1778 27.9333 53.0667ZM29.3333 18.0667C28.1333 16.3333 26.7893 14.9884 25.3013 14.032C23.8116 13.0773 22.0444 12.6 20 12.6C17.3778 12.6 15.2 13.4667 13.4667 15.2C11.7333 16.9333 10.8667 19.1111 10.8667 21.7333C10.8667 24.0444 11.6782 26.4889 13.3013 29.0667C14.9227 31.6444 16.8667 34.144 19.1333 36.5653C21.4 38.9884 23.7333 41.2551 26.1333 43.3653L32 48.5333C33.5111 47.1556 35.4667 45.4116 37.8667 43.3013C40.2667 41.1893 42.6 38.9227 44.8667 36.5013C47.1333 34.0782 49.0782 31.5884 50.7013 29.032C52.3227 26.4773 53.1333 24.0444 53.1333 21.7333C53.1333 19.1111 52.2667 16.9333 50.5333 15.2C48.8 13.4667 46.6222 12.6 44 12.6C41.9556 12.6 40.1893 13.0773 38.7013 14.032C37.2116 14.9884 35.8667 16.3333 34.6667 18.0667C34.3111 18.5555 33.9004 18.9227 33.4347 19.168C32.9671 19.4115 32.4889 19.5333 32 19.5333C31.4667 19.5333 30.9671 19.4115 30.5013 19.168C30.0338 18.9227 29.6444 18.5555 29.3333 18.0667Z" fill="#008EF4"/>
</g>
<mask id="mask1_281_329" style="mask-type:alpha" maskUnits="userSpaceOnUse" x="4" y="6" width="56" height="49">
<path d="M27.9331 53.0667L23.2665 48.8667C18.5554 44.5556 14.3002 40.2667 10.5011 36C6.70025 31.7333 4.7998 26.9778 4.7998 21.7333C4.7998 17.3778 6.24425 13.7555 9.13314 10.8667C12.022 7.97777 15.6442 6.53333 19.9998 6.53333C22.3109 6.53333 24.5109 6.99999 26.5998 7.93332C28.6887 8.86666 30.4887 10.2 31.9998 11.9333C33.5109 10.2 35.3002 8.86666 37.3678 7.93332C39.4336 6.99999 41.6442 6.53333 43.9998 6.53333C48.3109 6.53333 51.9216 7.97777 54.8318 10.8667C57.7438 13.7555 59.1998 17.3778 59.1998 21.7333C59.1998 26.9778 57.2994 31.744 53.4985 36.032C49.6994 40.3218 45.422 44.6222 40.6665 48.9333L36.0665 53.0667C34.9109 54.1778 33.5554 54.7333 31.9998 54.7333C30.4442 54.7333 29.0887 54.1778 27.9331 53.0667ZM29.3331 18.0667C28.1331 16.3333 26.7891 14.9884 25.3011 14.032C23.8114 13.0773 22.0442 12.6 19.9998 12.6C17.3776 12.6 15.1998 13.4667 13.4665 15.2C11.7331 16.9333 10.8665 19.1111 10.8665 21.7333C10.8665 24.0444 11.678 26.4889 13.3011 29.0667C14.9225 31.6444 16.8665 34.144 19.1331 36.5653C21.3998 38.9884 23.7331 41.2551 26.1331 43.3653L31.9998 48.5333C33.5109 47.1556 35.4665 45.4116 37.8665 43.3013C40.2665 41.1893 42.5998 38.9227 44.8665 36.5013C47.1331 34.0782 49.078 31.5884 50.7011 29.032C52.3225 26.4773 53.1331 24.0444 53.1331 21.7333C53.1331 19.1111 52.2665 16.9333 50.5331 15.2C48.7998 13.4667 46.622 12.6 43.9998 12.6C41.9554 12.6 40.1891 13.0773 38.7011 14.032C37.2114 14.9884 35.8665 16.3333 34.6665 18.0667C34.3109 18.5555 33.9002 18.9227 33.4345 19.168C32.9669 19.4115 32.4887 19.5333 31.9998 19.5333C31.4665 19.5333 30.9669 19.4115 30.5011 19.168C30.0336 18.9227 29.6442 18.5555 29.3331 18.0667Z" fill="#008EF4"/>
</mask>
<g mask="url(#mask1_281_329)">
<rect x="32" y="2" width="29" height="60" fill="#FED400"/>
</g>
</svg>
