<svg width="24" height="24" viewBox="0 0 24 24" fill="none" xmlns="http://www.w3.org/2000/svg">
<path d="M5.17539 22.525C4.42539 22.525 3.79639 22.2707 3.28839 21.762C2.77972 21.254 2.52539 20.625 2.52539 19.875V8.77502C2.24206 8.57502 2.00439 8.31236 1.81239 7.98702C1.62106 7.66236 1.52539 7.25002 1.52539 6.75002V4.17502C1.52539 3.42502 1.77972 2.79569 2.28839 2.28702C2.79639 1.77902 3.42539 1.52502 4.17539 1.52502H19.8254C20.5754 1.52502 21.2047 1.77902 21.7134 2.28702C22.2214 2.79569 22.4754 3.42502 22.4754 4.17502V6.75002C22.4754 7.25002 22.3797 7.66236 22.1884 7.98702C21.9964 8.31236 21.7587 8.57502 21.4754 8.77502V19.875C21.4754 20.625 21.2214 21.254 20.7134 21.762C20.2047 22.2707 19.5754 22.525 18.8254 22.525H5.17539ZM5.17539 9.40002V19.875H18.8254V9.40002H5.17539ZM19.8254 6.75002V4.17502H4.17539V6.75002H19.8254ZM9.85039 14.175H14.1504C14.4671 14.175 14.7297 14.0707 14.9384 13.862C15.1464 13.654 15.2504 13.3917 15.2504 13.075C15.2504 12.7584 15.1464 12.4917 14.9384 12.275C14.7297 12.0584 14.4671 11.95 14.1504 11.95H9.85039C9.53372 11.95 9.27106 12.0584 9.06239 12.275C8.85439 12.4917 8.75039 12.7584 8.75039 13.075C8.75039 13.3917 8.85439 13.654 9.06239 13.862C9.27106 14.0707 9.53372 14.175 9.85039 14.175Z"/>
<path fill-rule="evenodd" clip-rule="evenodd" d="M5.17539 19.875V9.40002H18.8254V19.875H5.17539ZM9.85039 14.175H14.1504C14.4671 14.175 14.7297 14.0707 14.9384 13.862C15.1464 13.654 15.2504 13.3917 15.2504 13.075C15.2504 12.7584 15.1464 12.4917 14.9384 12.275C14.7297 12.0584 14.4671 11.95 14.1504 11.95H9.85039C9.53372 11.95 9.27106 12.0584 9.06239 12.275C8.85439 12.4917 8.75039 12.7584 8.75039 13.075C8.75039 13.3917 8.85439 13.654 9.06239 13.862C9.27106 14.0707 9.53372 14.175 9.85039 14.175ZM3.28839 21.762C3.79639 22.2707 4.42539 22.525 5.17539 22.525H18.8254C19.5754 22.525 20.2047 22.2707 20.7134 21.762C21.2214 21.254 21.4754 20.625 21.4754 19.875V8.77502C21.7587 8.57502 21.9964 8.31236 22.1884 7.98702C22.3797 7.66236 22.4754 7.25002 22.4754 6.75002V4.17502C22.4754 3.42502 22.2214 2.79569 21.7134 2.28702C21.2047 1.77902 20.5754 1.52502 19.8254 1.52502H4.17539C3.42539 1.52502 2.79639 1.77902 2.28839 2.28702C1.77972 2.79569 1.52539 3.42502 1.52539 4.17502V6.75002C1.52539 7.25002 1.62106 7.66236 1.81239 7.98702C2.00439 8.31236 2.24206 8.57502 2.52539 8.77502V19.875C2.52539 20.625 2.77972 21.254 3.28839 21.762ZM19.8254 4.17502V6.75002H4.17539V4.17502H19.8254Z"/>
</svg>
