<svg width="24" height="24" viewBox="0 0 24 24" fill="none" xmlns="http://www.w3.org/2000/svg">
<mask id="mask0_143_3248" style="mask-type:alpha" maskUnits="userSpaceOnUse" x="0" y="0" width="24" height="24">
<rect y="24" width="24" height="24" transform="rotate(-90 0 24)"/>
</mask>
<g mask="url(#mask0_143_3248)">
<path d="M6.47441 10.075C6.72441 9.82495 7.03275 9.69995 7.39941 9.69995C7.76608 9.69995 8.07441 9.82495 8.32441 10.075L11.9994 13.75L15.6744 10.075C15.9244 9.82495 16.2327 9.69995 16.5994 9.69995C16.9661 9.69995 17.2744 9.82495 17.5244 10.075C17.7744 10.325 17.8994 10.6333 17.8994 11C17.8994 11.3666 17.7744 11.675 17.5244 11.925L12.9244 16.525C12.7911 16.6583 12.6454 16.7543 12.4874 16.813C12.3287 16.871 12.1661 16.9 11.9994 16.9C11.8327 16.9 11.6701 16.871 11.5114 16.813C11.3534 16.7543 11.2077 16.6583 11.0744 16.525L6.47441 11.925C6.22441 11.675 6.09941 11.3666 6.09941 11C6.09941 10.6333 6.22441 10.325 6.47441 10.075Z"/>
</g>
</svg>
