<svg width="24" height="24" viewBox="0 0 24 24" fill="none" xmlns="http://www.w3.org/2000/svg">
<mask id="mask0_143_4338" style="mask-type:alpha" maskUnits="userSpaceOnUse" x="0" y="0" width="24" height="24">
<rect width="24" height="24"/>
</mask>
<g mask="url(#mask0_143_4338)">
<path d="M8.2998 17.3L3.6998 12.7C3.5998 12.6 3.52914 12.4917 3.4878 12.375C3.4458 12.2584 3.4248 12.1334 3.4248 12C3.4248 11.8667 3.4458 11.7417 3.4878 11.625C3.52914 11.5084 3.5998 11.4 3.6998 11.3L8.3248 6.67502C8.50814 6.49169 8.73314 6.40002 8.9998 6.40002C9.26647 6.40002 9.4998 6.50002 9.6998 6.70002C9.88314 6.88336 9.9748 7.11669 9.9748 7.40002C9.9748 7.68336 9.88314 7.91669 9.6998 8.10002L6.7998 11H19.9998C20.2831 11 20.5205 11.0957 20.7118 11.287C20.9038 11.479 20.9998 11.7167 20.9998 12C20.9998 12.2834 20.9038 12.5207 20.7118 12.712C20.5205 12.904 20.2831 13 19.9998 13H6.7998L9.7248 15.925C9.90814 16.1084 9.9998 16.3334 9.9998 16.6C9.9998 16.8667 9.8998 17.1 9.6998 17.3C9.51647 17.4834 9.28314 17.575 8.9998 17.575C8.71647 17.575 8.48314 17.4834 8.2998 17.3Z"/>
</g>
</svg>
