<svg width="24" height="24" viewBox="0 0 24 24" fill="none" xmlns="http://www.w3.org/2000/svg">
<mask id="mask0_143_3241" style="mask-type:alpha" maskUnits="userSpaceOnUse" x="0" y="0" width="24" height="24">
<rect y="24" width="24" height="24" transform="rotate(-90 0 24)"/>
</mask>
<g mask="url(#mask0_143_3241)">
<path d="M17.5246 15.5249C17.2746 15.7749 16.9663 15.8999 16.5996 15.8999C16.2329 15.8999 15.9246 15.7749 15.6746 15.5249L11.9996 11.8499L8.32461 15.5249C8.07461 15.7749 7.76628 15.8999 7.39961 15.8999C7.03294 15.8999 6.72461 15.7749 6.47461 15.5249C6.22461 15.2749 6.09961 14.9666 6.09961 14.5999C6.09961 14.2332 6.22461 13.9249 6.47461 13.6749L11.0746 9.0749C11.2079 8.94157 11.3536 8.84557 11.5116 8.7869C11.6703 8.7289 11.8329 8.6999 11.9996 8.6999C12.1663 8.6999 12.3289 8.7289 12.4876 8.7869C12.6456 8.84557 12.7913 8.94157 12.9246 9.0749L17.5246 13.6749C17.7746 13.9249 17.8996 14.2332 17.8996 14.5999C17.8996 14.9666 17.7746 15.2749 17.5246 15.5249Z"/>
</g>
</svg>
