<svg width="24" height="24" viewBox="0 0 24 24" fill="none" xmlns="http://www.w3.org/2000/svg">
<path d="M11.9998 19.325C11.6331 19.325 11.3205 19.196 11.0618 18.938C10.8038 18.6794 10.6748 18.3667 10.6748 18V13.325H5.9998C5.63314 13.325 5.32047 13.196 5.0618 12.938C4.8038 12.6794 4.6748 12.3667 4.6748 12C4.6748 11.6334 4.8038 11.3207 5.0618 11.062C5.32047 10.804 5.63314 10.675 5.9998 10.675H10.6748V6.00005C10.6748 5.63338 10.8038 5.32072 11.0618 5.06205C11.3205 4.80405 11.6331 4.67505 11.9998 4.67505C12.3665 4.67505 12.6791 4.80405 12.9378 5.06205C13.1958 5.32072 13.3248 5.63338 13.3248 6.00005V10.675H17.9998C18.3665 10.675 18.6791 10.804 18.9378 11.062C19.1958 11.3207 19.3248 11.6334 19.3248 12C19.3248 12.3667 19.1958 12.6794 18.9378 12.938C18.6791 13.196 18.3665 13.325 17.9998 13.325H13.3248V18C13.3248 18.3667 13.1958 18.6794 12.9378 18.938C12.6791 19.196 12.3665 19.325 11.9998 19.325Z"/>
<path fill-rule="evenodd" clip-rule="evenodd" d="M11.9998 19.325C11.6331 19.325 11.3205 19.196 11.0618 18.938C10.8038 18.6794 10.6748 18.3667 10.6748 18V13.325H5.9998C5.63314 13.325 5.32047 13.196 5.0618 12.938C4.8038 12.6794 4.6748 12.3667 4.6748 12C4.6748 11.6334 4.8038 11.3207 5.0618 11.062C5.32047 10.804 5.63314 10.675 5.9998 10.675H10.6748V6.00005C10.6748 5.63338 10.8038 5.32072 11.0618 5.06205C11.3205 4.80405 11.6331 4.67505 11.9998 4.67505C12.3665 4.67505 12.6791 4.80405 12.9378 5.06205C13.1958 5.32072 13.3248 5.63338 13.3248 6.00005V10.675H17.9998C18.3665 10.675 18.6791 10.804 18.9378 11.062C19.1958 11.3207 19.3248 11.6334 19.3248 12C19.3248 12.3667 19.1958 12.6794 18.9378 12.938C18.6791 13.196 18.3665 13.325 17.9998 13.325H13.3248V18C13.3248 18.3667 13.1958 18.6794 12.9378 18.938C12.6791 19.196 12.3665 19.325 11.9998 19.325Z"/>
</svg>
