<svg width="24" height="24" viewBox="0 0 24 24" fill="none" xmlns="http://www.w3.org/2000/svg">
<path d="M1.34277 19.7071C0.992773 19.7071 0.697107 19.5864 0.455773 19.3451C0.213773 19.1031 0.0927734 18.8154 0.0927734 18.4821V4.93206C0.0927734 4.59872 0.213773 4.31539 0.455773 4.08206C0.697107 3.84872 0.992773 3.73206 1.34277 3.73206C1.67611 3.73206 1.95944 3.84872 2.19277 4.08206C2.42611 4.31539 2.54277 4.59872 2.54277 4.93206V14.0571H10.7428V8.38206C10.7428 7.64872 11.0011 7.02372 11.5178 6.50706C12.0344 5.99039 12.6594 5.73206 13.3928 5.73206H18.5428C19.7594 5.73206 20.8054 6.16539 21.6808 7.03206C22.5554 7.89872 22.9928 8.94872 22.9928 10.1821V18.5071C22.9928 18.8404 22.8761 19.1237 22.6428 19.3571C22.4094 19.5904 22.1178 19.7071 21.7678 19.7071C21.4344 19.7071 21.1471 19.5864 20.9058 19.3451C20.6638 19.1031 20.5428 18.8154 20.5428 18.4821V16.7071H2.54277V18.5071C2.54277 18.8404 2.42611 19.1237 2.19277 19.3571C1.95944 19.5904 1.67611 19.7071 1.34277 19.7071ZM6.66777 13.1821C5.76777 13.1821 5.00111 12.8654 4.36777 12.2321C3.73444 11.5987 3.41777 10.8321 3.41777 9.93206C3.41777 9.04872 3.73444 8.29439 4.36777 7.66906C5.00111 7.04439 5.76777 6.73206 6.66777 6.73206C7.55111 6.73206 8.30544 7.04439 8.93077 7.66906C9.55544 8.29439 9.86777 9.04872 9.86777 9.93206C9.86777 10.8321 9.55544 11.5987 8.93077 12.2321C8.30544 12.8654 7.55111 13.1821 6.66777 13.1821ZM13.1928 14.0571H20.5428V10.1821C20.5428 9.63206 20.3471 9.16106 19.9558 8.76906C19.5638 8.37772 19.0928 8.18206 18.5428 8.18206H13.1928V14.0571ZM6.66777 10.9321C6.95111 10.9321 7.18877 10.8361 7.38077 10.6441C7.57211 10.4527 7.66777 10.2154 7.66777 9.93206C7.66777 9.64872 7.57211 9.41106 7.38077 9.21906C7.18877 9.02772 6.95111 8.93206 6.66777 8.93206C6.38444 8.93206 6.14677 9.02772 5.95477 9.21906C5.76344 9.41106 5.66777 9.64872 5.66777 9.93206C5.66777 10.2154 5.76344 10.4527 5.95477 10.6441C6.14677 10.8361 6.38444 10.9321 6.66777 10.9321Z"/>
</svg>
