<svg width="60" height="78" viewBox="0 0 60 78" fill="none" xmlns="http://www.w3.org/2000/svg">
<mask id="path-1-inside-1_688_5014" fill="white">
<path fill-rule="evenodd" clip-rule="evenodd" d="M60 30.6271C60 44.5945 50.4548 56.3325 37.5317 59.6738C33.0366 62.6754 32.0197 63.7029 30 67.2375C28.001 63.6393 25.5108 61.2198 22.5294 59.6896C9.57528 56.3695 0 44.6165 0 30.6271C0 14.0586 13.4315 0.627136 30 0.627136C46.5685 0.627136 60 14.0586 60 30.6271ZM30 76C31.6569 76 33 74.6569 33 73C33 71.3431 31.6569 70 30 70C28.3431 70 27 71.3431 27 73C27 74.6569 28.3431 76 30 76Z"/>
</mask>
<path fill-rule="evenodd" clip-rule="evenodd" d="M60 30.6271C60 44.5945 50.4548 56.3325 37.5317 59.6738C33.0366 62.6754 32.0197 63.7029 30 67.2375C28.001 63.6393 25.5108 61.2198 22.5294 59.6896C9.57528 56.3695 0 44.6165 0 30.6271C0 14.0586 13.4315 0.627136 30 0.627136C46.5685 0.627136 60 14.0586 60 30.6271ZM30 76C31.6569 76 33 74.6569 33 73C33 71.3431 31.6569 70 30 70C28.3431 70 27 71.3431 27 73C27 74.6569 28.3431 76 30 76Z" fill="url(#paint0_linear_688_5014)"/>
<path d="M37.5317 59.6738L37.2813 58.7057L37.1173 58.7481L36.9764 58.8422L37.5317 59.6738ZM30 67.2375L29.1258 67.7232L29.9877 69.2746L30.8683 67.7336L30 67.2375ZM22.5294 59.6896L22.986 58.7999L22.8863 58.7487L22.7777 58.7209L22.5294 59.6896ZM37.782 60.642C51.1357 57.1894 61 45.0615 61 30.6271H59C59 44.1276 49.7739 55.4757 37.2813 58.7057L37.782 60.642ZM30.8683 67.7336C31.8641 65.9908 32.5714 64.941 33.5464 63.9611C34.5373 62.9653 35.8394 62.0062 38.087 60.5055L36.9764 58.8422C34.7288 60.343 33.275 61.3984 32.1287 62.5504C30.9666 63.7184 30.1556 64.9496 29.1317 66.7414L30.8683 67.7336ZM22.0728 60.5792C24.8578 62.0087 27.2113 64.2769 29.1258 67.7232L30.8742 66.7519C28.7907 63.0016 26.1637 60.4309 22.986 58.7999L22.0728 60.5792ZM-1 30.6271C-1 45.0842 8.89541 57.2276 22.2811 60.6583L22.7777 58.7209C10.2552 55.5114 1 44.1488 1 30.6271H-1ZM30 -0.372864C12.8792 -0.372864 -1 13.5063 -1 30.6271H1C1 14.6109 13.9837 1.62714 30 1.62714V-0.372864ZM61 30.6271C61 13.5063 47.1208 -0.372864 30 -0.372864V1.62714C46.0163 1.62714 59 14.6109 59 30.6271H61ZM32 73C32 74.1046 31.1046 75 30 75V77C32.2091 77 34 75.2091 34 73H32ZM30 71C31.1046 71 32 71.8954 32 73H34C34 70.7909 32.2091 69 30 69V71ZM28 73C28 71.8954 28.8954 71 30 71V69C27.7909 69 26 70.7909 26 73H28ZM30 75C28.8954 75 28 74.1046 28 73H26C26 75.2091 27.7909 77 30 77V75Z" fill="url(#paint1_linear_688_5014)" fill-opacity="0.6" mask="url(#path-1-inside-1_688_5014)"/>
<defs>
<linearGradient id="paint0_linear_688_5014" x1="30" y1="0.627136" x2="30" y2="76" gradientUnits="userSpaceOnUse">
<stop stop-color="#42C6FF"/>
<stop offset="0.9999" stop-color="#0094FF"/>
</linearGradient>
<linearGradient id="paint1_linear_688_5014" x1="30" y1="0.627136" x2="30" y2="76" gradientUnits="userSpaceOnUse">
<stop stop-color="white" stop-opacity="0.6"/>
<stop offset="1" stop-color="white" stop-opacity="0"/>
</linearGradient>
</defs>
</svg>
