<svg width="24" height="24" viewBox="0 0 24 24" fill="none" xmlns="http://www.w3.org/2000/svg">
<mask id="mask0_123_2008" style="mask-type:alpha" maskUnits="userSpaceOnUse" x="0" y="0" width="24" height="24">
<rect width="24" height="24"/>
</mask>
<g mask="url(#mask0_123_2008)">
<path d="M14.148 15.7709C14.3548 15.9936 14.6173 16.105 14.9356 16.105C15.2538 16.105 15.5322 15.9857 15.7709 15.747C15.9936 15.5243 16.105 15.2538 16.105 14.9356C16.105 14.6173 15.9936 14.3469 15.7709 14.1241L13.1456 11.4988V8.42005C13.1456 8.10183 13.0383 7.83516 12.8239 7.62005C12.6088 7.40557 12.3341 7.29833 12 7.29833C11.6659 7.29833 11.3916 7.40971 11.1771 7.63246C10.962 7.85521 10.8544 8.1257 10.8544 8.44391V11.9284C10.8544 12.1034 10.8862 12.2705 10.9499 12.4296C11.0135 12.5887 11.101 12.7239 11.2124 12.8353L14.148 15.7709ZM12 22C10.5998 22 9.29515 21.7375 8.08592 21.2124C6.87669 20.6874 5.82275 19.9755 4.9241 19.0768C4.02482 18.1776 3.31265 17.1233 2.78759 15.9141C2.26253 14.7049 2 13.4002 2 12C2 10.5998 2.26253 9.29515 2.78759 8.08592C3.31265 6.87669 4.02482 5.82243 4.9241 4.92315C5.82275 4.0245 6.87669 3.31265 8.08592 2.78759C9.29515 2.26253 10.5998 2 12 2C13.4002 2 14.7049 2.26253 15.9141 2.78759C17.1233 3.31265 18.1776 4.0245 19.0768 4.92315C19.9755 5.82243 20.6874 6.87669 21.2124 8.08592C21.7375 9.29515 22 10.5998 22 12C22 13.4002 21.7375 14.7049 21.2124 15.9141C20.6874 17.1233 19.9755 18.1776 19.0768 19.0768C18.1776 19.9755 17.1233 20.6874 15.9141 21.2124C14.7049 21.7375 13.4002 22 12 22ZM12 19.4702C14.0684 19.4702 15.8307 18.7462 17.2869 17.2983C18.7424 15.8504 19.4702 14.0843 19.4702 12C19.4702 9.91567 18.7424 8.14956 17.2869 6.70167C15.8307 5.25378 14.0684 4.52983 12 4.52983C9.93158 4.52983 8.16961 5.25378 6.71408 6.70167C5.25792 8.14956 4.52983 9.91567 4.52983 12C4.52983 14.0843 5.25792 15.8504 6.71408 17.2983C8.16961 18.7462 9.93158 19.4702 12 19.4702Z"/>
</g>
</svg>
