<svg width="24" height="24" viewBox="0 0 24 24" fill="none" xmlns="http://www.w3.org/2000/svg">
<path d="M2.65019 20.325C2.13339 20.325 1.78759 20.075 1.61279 19.575C1.43759 19.075 1.56659 18.6584 1.99979 18.3252L10.9002 11.5248V10.125C10.9002 9.825 11.0084 9.5666 11.2248 9.3498C11.4416 9.1334 11.7 9.0252 12 9.0252C12.4832 9.0416 12.8956 8.879 13.2372 8.5374C13.5792 8.1958 13.7502 7.775 13.7502 7.275C13.7502 6.8082 13.5792 6.404 13.2372 6.0624C12.8956 5.7208 12.4916 5.55 12.0252 5.55C11.7084 5.55 11.4124 5.6376 11.1372 5.8128C10.8624 5.9876 10.6666 6.225 10.5498 6.525C10.4498 6.725 10.3124 6.8792 10.1376 6.9876C9.96239 7.096 9.76659 7.1502 9.55019 7.1502C9.15019 7.1502 8.83759 6.9794 8.61239 6.6378C8.38759 6.2958 8.35839 5.9416 8.52479 5.5752C8.84159 4.8916 9.31239 4.3458 9.93719 3.9378C10.5624 3.5294 11.25 3.3252 12 3.3252C13.1 3.3252 14.0334 3.7044 14.8002 4.4628C15.5666 5.2208 15.9498 6.1416 15.9498 7.2252C15.9498 8.0916 15.679 8.8582 15.1374 9.525C14.5958 10.1918 13.9166 10.6668 13.0998 10.95V11.5248L22.0002 18.3252C22.4334 18.6584 22.5624 19.075 22.3872 19.575C22.2124 20.075 21.8666 20.325 21.3498 20.325H2.65019ZM5.95019 18.1248H18.0498L12 13.425L5.95019 18.1248Z"/>
</svg>
