<svg width="24" height="24" viewBox="0 0 24 24" fill="none" xmlns="http://www.w3.org/2000/svg">
<mask id="mask0_159_3207" style="mask-type:alpha" maskUnits="userSpaceOnUse" x="2" y="2" width="20" height="20">
<rect x="2" y="2" width="20" height="20"/>
</mask>
<g mask="url(#mask0_159_3207)">
<path d="M11.9996 13.604L8.16661 17.438C7.94394 17.66 7.67994 17.7673 7.37461 17.76C7.06928 17.7533 6.80528 17.639 6.58261 17.417C6.36061 17.1943 6.24961 16.927 6.24961 16.615C6.24961 16.3023 6.36061 16.0347 6.58261 15.812L10.3956 12L6.56161 8.167C6.33961 7.94434 6.23228 7.677 6.23961 7.365C6.24628 7.05234 6.36061 6.78467 6.58261 6.562C6.80528 6.34 7.07261 6.229 7.38461 6.229C7.69728 6.229 7.96494 6.34 8.18761 6.562L11.9996 10.396L15.8326 6.562C16.0553 6.34 16.3226 6.229 16.6346 6.229C16.9473 6.229 17.2149 6.34 17.4376 6.562C17.6596 6.78467 17.7706 7.05234 17.7706 7.365C17.7706 7.677 17.6596 7.94434 17.4376 8.167L13.6036 12L17.4376 15.833C17.6596 16.0557 17.7706 16.3197 17.7706 16.625C17.7706 16.9303 17.6596 17.1943 17.4376 17.417C17.2149 17.639 16.9473 17.75 16.6346 17.75C16.3226 17.75 16.0553 17.639 15.8326 17.417L11.9996 13.604Z"/>
</g>
</svg>
