<svg width="24" height="24" viewBox="0 0 24 24" fill="none" xmlns="http://www.w3.org/2000/svg">
<path fill-rule="evenodd" clip-rule="evenodd" d="M11.5004 18.825H12.5004V16.9L15.8254 13.575V9.17502H8.17539V13.575L11.5004 16.9V18.825ZM6.30039 15.475L8.85039 18.025V20.15C8.85039 20.5167 8.97972 20.829 9.23839 21.087C9.49639 21.3457 9.80872 21.475 10.1754 21.475H13.8254C14.1921 21.475 14.5044 21.3457 14.7624 21.087C15.0211 20.829 15.1504 20.5167 15.1504 20.15V18.025L17.7004 15.475C17.9504 15.225 18.1421 14.9377 18.2754 14.613C18.4087 14.2877 18.4754 13.95 18.4754 13.6V9.17502C18.4754 8.42502 18.2211 7.79169 17.7124 7.27502C17.2956 6.85115 16.7974 6.60115 16.2178 6.52502L16.2754 3.85002C16.2754 3.48336 16.1464 3.17069 15.8884 2.91202C15.6297 2.65402 15.3171 2.52502 14.9504 2.52502C14.5837 2.52502 14.2711 2.65402 14.0124 2.91202C13.7544 3.17069 13.6254 3.48336 13.6254 3.85002V6.52502H10.3754V3.85002C10.3754 3.48336 10.2464 3.17069 9.98839 2.91202C9.72972 2.65402 9.41706 2.52502 9.05039 2.52502C8.68372 2.52502 8.37139 2.65402 8.11339 2.91202C7.85472 3.17069 7.72539 3.48336 7.72539 3.85002V6.5332C7.17028 6.61799 6.69128 6.86526 6.28839 7.27502C5.77972 7.79169 5.52539 8.42502 5.52539 9.17502V13.6C5.52539 13.95 5.59206 14.2877 5.72539 14.613C5.85872 14.9377 6.05039 15.225 6.30039 15.475Z"/>
</svg>
