<svg width="24" height="24" viewBox="0 0 24 24" fill="none" xmlns="http://www.w3.org/2000/svg">
<mask id="mask0_143_2655" style="mask-type:alpha" maskUnits="userSpaceOnUse" x="0" y="0" width="24" height="24">
<rect width="24" height="24"/>
</mask>
<g mask="url(#mask0_143_2655)">
<path d="M10.7504 13.25C11.1004 13.25 11.3961 13.125 11.6374 12.875C11.8794 12.625 12.0004 12.3334 12.0004 12C12.0004 11.65 11.8794 11.3544 11.6374 11.113C11.3961 10.871 11.1004 10.75 10.7504 10.75C10.4004 10.75 10.1047 10.871 9.86339 11.113C9.62139 11.3544 9.50039 11.65 9.50039 12C9.50039 12.3334 9.62139 12.625 9.86339 12.875C10.1047 13.125 10.4004 13.25 10.7504 13.25ZM7.17539 21.4501V18.8251L12.7254 17.875V7.40005C12.7254 7.08338 12.6171 6.80005 12.4004 6.55005C12.1837 6.30005 11.9171 6.15005 11.6004 6.10005L7.17539 5.30005V2.67505L12.0754 3.47505C13.0421 3.64172 13.8337 4.09172 14.4504 4.82505C15.0671 5.55838 15.3754 6.40838 15.3754 7.37505V17.825C15.3754 18.4917 15.1671 19.0667 14.7504 19.55C14.3337 20.0334 13.8004 20.3334 13.1504 20.4501L7.17539 21.4501ZM7.17539 18.8251H16.8254V5.32505L7.17539 5.30005V18.8251ZM3.85039 21.475C3.48372 21.475 3.17139 21.3457 2.91339 21.087C2.65472 20.8291 2.52539 20.5167 2.52539 20.15C2.52539 19.7834 2.65472 19.4707 2.91339 19.212C3.17139 18.9541 3.48372 18.8251 3.85039 18.8251H4.52539V5.32505C4.52539 4.57505 4.78772 3.94572 5.31239 3.43705C5.83772 2.92905 6.45872 2.67505 7.17539 2.67505H16.8254C17.5587 2.67505 18.1837 2.92905 18.7004 3.43705C19.2171 3.94572 19.4754 4.57505 19.4754 5.32505V18.8251H20.1504C20.5171 18.8251 20.8297 18.9541 21.0884 19.212C21.3464 19.4707 21.4754 19.7834 21.4754 20.15C21.4754 20.5167 21.3464 20.8291 21.0884 21.087C20.8297 21.3457 20.5171 21.475 20.1504 21.475H3.85039Z"/>
</g>
</svg>
