<svg width="24" height="24" viewBox="0 0 24 24" fill="none" xmlns="http://www.w3.org/2000/svg">
<mask id="mask0_143_3234" style="mask-type:alpha" maskUnits="userSpaceOnUse" x="0" y="0" width="24" height="24">
<rect width="24" height="24"/>
</mask>
<g mask="url(#mask0_143_3234)">
<path d="M10.9998 18.525C10.6331 18.525 10.3205 18.4 10.0618 18.15C9.8038 17.9 9.6748 17.5833 9.6748 17.2C9.6748 16.8333 9.8038 16.5206 10.0618 16.262C10.3205 16.004 10.6331 15.875 10.9998 15.875H12.9998C13.3665 15.875 13.6791 16.004 13.9378 16.262C14.1958 16.5206 14.3248 16.8333 14.3248 17.2C14.3248 17.5833 14.1958 17.9 13.9378 18.15C13.6791 18.4 13.3665 18.525 12.9998 18.525H10.9998ZM3.9998 8.12498C3.63314 8.12498 3.32047 7.99564 3.0618 7.73698C2.8038 7.47898 2.6748 7.16664 2.6748 6.79998C2.6748 6.41664 2.8038 6.09998 3.0618 5.84998C3.32047 5.59998 3.63314 5.47498 3.9998 5.47498H19.9998C20.3665 5.47498 20.6791 5.59998 20.9378 5.84998C21.1958 6.09998 21.3248 6.41664 21.3248 6.79998C21.3248 7.16664 21.1958 7.47898 20.9378 7.73698C20.6791 7.99564 20.3665 8.12498 19.9998 8.12498H3.9998ZM6.9998 13.325C6.63314 13.325 6.32047 13.196 6.0618 12.938C5.8038 12.6793 5.6748 12.3666 5.6748 12C5.6748 11.6333 5.8038 11.3206 6.0618 11.062C6.32047 10.804 6.63314 10.675 6.9998 10.675H16.9998C17.3665 10.675 17.6791 10.804 17.9378 11.062C18.1958 11.3206 18.3248 11.6333 18.3248 12C18.3248 12.3666 18.1958 12.6793 17.9378 12.938C17.6791 13.196 17.3665 13.325 16.9998 13.325H6.9998Z"/>
</g>
</svg>
