<svg width="24" height="24" viewBox="0 0 24 24" fill="none" xmlns="http://www.w3.org/2000/svg">
<path d="M3.52469 20.5998C3.30789 20.3834 3.19949 20.1252 3.19949 19.8252C3.19949 19.5252 3.30789 19.2668 3.52469 19.05L13.2495 9.34982C12.9163 8.51662 12.8789 7.65422 13.1373 6.76262C13.3957 5.87102 13.8749 5.07522 14.5749 4.37522C15.3581 3.60842 16.3331 3.10422 17.4999 2.86262C18.6663 2.62102 19.6329 2.88342 20.3997 3.64982C21.1829 4.43342 21.4453 5.40022 21.1869 6.55022C20.9289 7.70022 20.3999 8.68342 19.5999 9.49982C18.9499 10.1834 18.1831 10.6584 17.2995 10.9248C16.4163 11.1916 15.5831 11.175 14.7999 10.875L13.5747 12.1002L20.5245 19.05C20.7413 19.2668 20.8497 19.5252 20.8497 19.8252C20.8497 20.1252 20.7413 20.3834 20.5245 20.5998C20.3081 20.8166 20.0541 20.925 19.7625 20.925C19.4705 20.925 19.2079 20.8166 18.9747 20.5998L12.0249 13.65L5.07449 20.5998C4.84129 20.8166 4.57889 20.925 4.28729 20.925C3.99569 20.925 3.74149 20.8166 3.52469 20.5998ZM7.09949 12.4002L4.19969 9.49982C3.34969 8.64982 2.88309 7.69162 2.79989 6.62522C2.71629 5.55842 2.96629 4.55002 3.54989 3.60002C3.71629 3.35002 3.95369 3.21662 4.26209 3.19982C4.57049 3.18342 4.83309 3.28342 5.04989 3.49982L10.5249 8.97482L7.09949 12.4002Z"/>
</svg>
