<svg width="24" height="24" viewBox="0 0 24 24" fill="none" xmlns="http://www.w3.org/2000/svg">
<path d="M12.0002 22.2252C9.70019 22.2252 7.75439 21.4292 6.16279 19.8372C4.57119 18.2456 3.77539 16.2998 3.77539 13.9998C3.77539 12.0998 4.35859 10.2416 5.52499 8.42517C6.69179 6.60837 8.29179 5.04157 10.325 3.72477C10.7418 3.44157 11.1626 3.42497 11.5874 3.67497C12.0126 3.92497 12.2252 4.30837 12.2252 4.82517V6.29997C12.2252 6.79997 12.4002 7.22077 12.7502 7.56237C13.1002 7.90397 13.5252 8.07477 14.0252 8.07477C14.292 8.07477 14.542 8.01657 14.7752 7.90017C15.0084 7.78337 15.2084 7.61657 15.3752 7.39977C15.542 7.19977 15.7378 7.07077 15.9626 7.01277C16.1878 6.95437 16.4004 6.99177 16.6004 7.12497C17.7336 7.92497 18.621 8.92917 19.2626 10.1376C19.9042 11.346 20.225 12.6334 20.225 13.9998C20.225 16.2998 19.4292 18.2456 17.8376 19.8372C16.246 21.4292 14.3002 22.2252 12.0002 22.2252ZM5.97499 13.9998C5.97499 14.8166 6.14179 15.5916 6.47539 16.3248C6.80859 17.0584 7.27519 17.6918 7.87519 18.225C7.84199 18.1082 7.81279 17.9874 7.78759 17.8626C7.76279 17.7374 7.75039 17.6082 7.75039 17.475C7.80039 17.0082 7.92939 16.5666 8.13739 16.1502C8.34579 15.7334 8.62499 15.35 8.97499 15L12.0002 12L15.05 15C15.4 15.35 15.6792 15.7334 15.8876 16.1502C16.096 16.5666 16.2168 17.0082 16.25 17.475C16.25 17.6082 16.2376 17.7374 16.2128 17.8626C16.1876 17.9874 16.1584 18.1082 16.1252 18.225C16.7252 17.6918 17.1918 17.0584 17.525 16.3248C17.8586 15.5916 18.0254 14.8166 18.0254 13.9998C18.0254 13.1998 17.867 12.4248 17.5502 11.6748C17.2334 10.9248 16.7834 10.2332 16.2002 9.59997C15.8502 9.81677 15.4878 9.98337 15.113 10.0998C14.7378 10.2166 14.3752 10.275 14.0252 10.275C13.042 10.275 12.192 9.96237 11.4752 9.33717C10.7584 8.71237 10.325 7.90837 10.175 6.92517V6.57477C8.85859 7.60837 7.82939 8.78337 7.08739 10.0998C6.34579 11.4166 5.97499 12.7166 5.97499 13.9998ZM12.0002 15.1002L10.5254 16.5498C10.3086 16.7498 10.1502 16.9708 10.0502 17.2128C9.95019 17.4544 9.90019 17.7084 9.90019 17.9748C9.90019 18.5416 10.1044 19.025 10.5128 19.425C10.9212 19.825 11.417 20.025 12.0002 20.025C12.5834 20.025 13.0792 19.825 13.4876 19.425C13.896 19.025 14.1002 18.5416 14.1002 17.9748C14.1002 17.7084 14.0502 17.4544 13.9502 17.2128C13.8502 16.9708 13.7002 16.7582 13.5002 16.575L12.0002 15.1002Z"/>
</svg>
