<svg width="24" height="24" viewBox="0 0 24 24" fill="none" xmlns="http://www.w3.org/2000/svg">
<mask id="mask0_159_3383" style="mask-type:alpha" maskUnits="userSpaceOnUse" x="0" y="0" width="24" height="24">
<rect width="24" height="24"/>
</mask>
<g mask="url(#mask0_159_3383)">
<path d="M16.1754 13.05L14.1254 11C14.2087 10.55 14.0754 10.125 13.7254 9.72495C13.3754 9.32495 12.9254 9.16662 12.3754 9.24995L10.4504 7.32495C10.7004 7.20828 10.9547 7.12495 11.2134 7.07495C11.4714 7.02495 11.7337 6.99995 12.0004 6.99995C13.2504 6.99995 14.3131 7.43728 15.1884 8.31195C16.0631 9.18728 16.5004 10.25 16.5004 11.5C16.5004 11.75 16.4754 12.0123 16.4254 12.287C16.3754 12.5623 16.2921 12.8166 16.1754 13.05ZM19.7504 16.6L18.0254 14.9C18.5921 14.4333 19.1004 13.929 19.5504 13.387C20.0004 12.8456 20.4087 12.2166 20.7754 11.5C19.9254 9.83328 18.7297 8.49995 17.1884 7.49995C15.6464 6.49995 13.9171 5.99995 12.0004 5.99995C11.5171 5.99995 11.0671 6.02928 10.6504 6.08795C10.2337 6.14595 9.83372 6.22495 9.45039 6.32495L7.52539 4.39995C8.20872 4.11662 8.92972 3.90395 9.68839 3.76195C10.4464 3.62062 11.2171 3.54995 12.0004 3.54995C14.4171 3.54995 16.6044 4.18728 18.5624 5.46195C20.5211 6.73728 22.0171 8.44995 23.0504 10.6C23.1171 10.7166 23.1631 10.854 23.1884 11.012C23.2131 11.1706 23.2254 11.3333 23.2254 11.5C23.2254 11.6666 23.2087 11.8293 23.1754 11.988C23.1421 12.146 23.1004 12.2833 23.0504 12.4C22.6671 13.2333 22.1921 14.0083 21.6254 14.725C21.0587 15.4416 20.4337 16.0666 19.7504 16.6ZM18.8504 22L15.6754 18.85C15.1254 19.05 14.5421 19.1999 13.9254 19.2999C13.3087 19.4 12.6671 19.45 12.0004 19.45C9.58372 19.45 7.39639 18.8083 5.43839 17.525C3.47972 16.2416 1.98372 14.5333 0.950391 12.4C0.883724 12.2833 0.837724 12.146 0.812391 11.988C0.787724 11.8293 0.775391 11.6666 0.775391 11.5C0.775391 11.3333 0.787724 11.1706 0.812391 11.012C0.837724 10.854 0.883724 10.725 0.950391 10.625C1.28372 9.90828 1.68806 9.23762 2.16339 8.61295C2.63806 7.98762 3.15039 7.40828 3.70039 6.87495L1.77539 4.92495C1.55872 4.70828 1.45039 4.45395 1.45039 4.16195C1.45039 3.87062 1.56706 3.60828 1.80039 3.37495C2.00039 3.17495 2.25439 3.07495 2.56239 3.07495C2.87106 3.07495 3.13372 3.17495 3.35039 3.37495L20.4004 20.45C20.6171 20.65 20.7254 20.9039 20.7254 21.212C20.7254 21.5206 20.6171 21.7833 20.4004 22C20.1837 22.2166 19.9254 22.325 19.6254 22.325C19.3254 22.325 19.0671 22.2166 18.8504 22ZM5.42539 8.54995C4.95872 8.99995 4.55039 9.45828 4.20039 9.92495C3.85039 10.3916 3.53372 10.9166 3.25039 11.5C4.08372 13.1833 5.27106 14.5206 6.81239 15.512C8.35439 16.504 10.0837 17 12.0004 17C12.2504 17 12.5131 16.9873 12.7884 16.962C13.0631 16.9373 13.3671 16.9 13.7004 16.85L12.8004 15.9C12.6671 15.9333 12.5337 15.9583 12.4004 15.975C12.2671 15.9916 12.1337 16 12.0004 16C10.7504 16 9.68773 15.5626 8.81239 14.688C7.93772 13.8126 7.50039 12.75 7.50039 11.5C7.50039 11.3666 7.50472 11.2333 7.51339 11.1C7.52139 10.9666 7.54206 10.8333 7.57539 10.7L5.42539 8.54995Z"/>
</g>
</svg>
