<svg width="24" height="24" viewBox="0 0 24 24" fill="none" xmlns="http://www.w3.org/2000/svg">
<mask id="mask0_123_2007" style="mask-type:alpha" maskUnits="userSpaceOnUse" x="0" y="0" width="24" height="24">
<rect width="24" height="24"/>
</mask>
<g mask="url(#mask0_123_2007)">
<path d="M11.0591 12.125C11.5967 12.125 12.0575 11.9167 12.4415 11.5C12.8255 11.0834 13.0175 10.5834 13.0175 10C13.0175 9.41672 12.8255 8.91672 12.4415 8.50005C12.0575 8.08338 11.5967 7.87505 11.0591 7.87505C10.5215 7.87505 10.0607 8.08338 9.67667 8.50005C9.29267 8.91672 9.10067 9.41672 9.10067 10C9.10067 10.5834 9.29267 11.0834 9.67667 11.5C10.0607 11.9167 10.5215 12.125 11.0591 12.125ZM11.0591 18.9C12.8255 17.1334 14.1388 15.5207 14.9989 14.062C15.8591 12.604 16.2892 11.3167 16.2892 10.2C16.2892 8.48338 15.7863 7.07505 14.7805 5.97505C13.7741 4.87505 12.5337 4.32505 11.0591 4.32505C9.59987 4.32505 8.36339 4.87505 7.34962 5.97505C6.33586 7.07505 5.82897 8.48338 5.82897 10.2C5.82897 11.3167 6.25906 12.604 7.11922 14.062C7.97938 15.5207 9.29267 17.1334 11.0591 18.9ZM11.0591 21.875C10.8901 21.875 10.7175 21.8417 10.5411 21.775C10.3642 21.7084 10.2066 21.6084 10.0684 21.475C7.82578 19.2917 6.15153 17.2707 5.04561 15.412C3.93968 13.554 3.38672 11.8167 3.38672 10.2C3.38672 7.60005 4.15872 5.52905 5.70271 3.98705C7.24609 2.44572 9.03155 1.67505 11.0591 1.67505C13.0866 1.67505 14.8721 2.44572 16.4155 3.98705C17.9594 5.52905 18.7314 7.60005 18.7314 10.2C18.7314 11.8167 18.1785 13.554 17.0726 15.412C15.9666 17.2707 14.2924 19.2917 12.0498 21.475C11.9116 21.6084 11.754 21.7084 11.577 21.775C11.4007 21.8417 11.228 21.875 11.0591 21.875Z"/>
</g>
</svg>
