<svg width="24" height="24" viewBox="0 0 24 24" fill="none" xmlns="http://www.w3.org/2000/svg">
<mask id="mask0_186_4669" style="mask-type:alpha" maskUnits="userSpaceOnUse" x="0" y="0" width="24" height="24">
<rect width="24" height="24"/>
</mask>
<g mask="url(#mask0_186_4669)">
<path d="M6.17539 22.45C5.44206 22.45 4.81706 22.1877 4.30039 21.663C3.78372 21.1377 3.52539 20.5167 3.52539 19.8V10.125C3.52539 9.39167 3.78372 8.76667 4.30039 8.25C4.81706 7.73333 5.44206 7.475 6.17539 7.475H6.80039V5.875C6.80039 4.425 7.30439 3.18733 8.31239 2.162C9.32106 1.13733 10.5504 0.625 12.0004 0.625C13.4504 0.625 14.6797 1.13733 15.6884 2.162C16.6964 3.18733 17.2004 4.425 17.2004 5.875V7.475H17.8254C18.5587 7.475 19.1837 7.73333 19.7004 8.25C20.2171 8.76667 20.4754 9.39167 20.4754 10.125V19.8C20.4754 20.5167 20.2171 21.1377 19.7004 21.663C19.1837 22.1877 18.5587 22.45 17.8254 22.45H6.17539ZM6.17539 19.8H17.8254V10.125H6.17539V19.8ZM12.0004 16.95C12.5504 16.95 13.0214 16.7543 13.4134 16.363C13.8047 15.971 14.0004 15.5 14.0004 14.95C14.0004 14.4 13.8047 13.929 13.4134 13.537C13.0214 13.1457 12.5504 12.95 12.0004 12.95C11.4504 12.95 10.9797 13.1457 10.5884 13.537C10.1964 13.929 10.0004 14.4 10.0004 14.95C10.0004 15.5 10.1964 15.971 10.5884 16.363C10.9797 16.7543 11.4504 16.95 12.0004 16.95ZM9.45039 7.475H14.5504V5.875C14.5504 5.15833 14.3044 4.54567 13.8124 4.037C13.3211 3.529 12.7171 3.275 12.0004 3.275C11.2837 3.275 10.6797 3.529 10.1884 4.037C9.69639 4.54567 9.45039 5.15833 9.45039 5.875V7.475Z"/>
</g>
</svg>
