<svg width="24" height="24" viewBox="0 0 24 24" fill="none" xmlns="http://www.w3.org/2000/svg">
<path d="M10.3994 14.5998V15.4998C10.3994 15.9498 10.5536 16.329 10.862 16.6374C11.1704 16.9458 11.5496 17.1 11.9996 17.1C12.4496 17.1 12.8288 16.9458 13.1372 16.6374C13.4456 16.329 13.5998 15.9498 13.5998 15.4998V14.5998H14.4998C14.9498 14.5998 15.3288 14.4456 15.6368 14.1372C15.9452 13.8292 16.0994 13.4502 16.0994 13.0002C16.0994 12.5502 15.9452 12.171 15.6368 11.8626C15.3288 11.5542 14.9498 11.4 14.4998 11.4H13.5998V10.5C13.5998 10.05 13.4456 9.6708 13.1372 9.3624C12.8288 9.054 12.4496 8.8998 11.9996 8.8998C11.5496 8.8998 11.1704 9.054 10.862 9.3624C10.5536 9.6708 10.3994 10.05 10.3994 10.5V11.4H9.49941C9.04941 11.4 8.67041 11.5542 8.36241 11.8626C8.05401 12.171 7.89981 12.5502 7.89981 13.0002C7.89981 13.4502 8.05401 13.8292 8.36241 14.1372C8.67041 14.4456 9.04941 14.5998 9.49941 14.5998H10.3994ZM5.79981 21.4002C5.18301 21.4002 4.66201 21.1876 4.23681 20.7624C3.81201 20.3376 3.59961 19.8168 3.59961 19.2V9.9C3.59961 9.55 3.67461 9.2208 3.82461 8.9124C3.97461 8.604 4.19121 8.3416 4.47441 8.1252L10.6748 3.4752C11.058 3.1916 11.4996 3.0498 11.9996 3.0498C12.4996 3.0498 12.9412 3.1916 13.3244 3.4752L19.5248 8.1252C19.808 8.3416 20.0246 8.604 20.1746 8.9124C20.3246 9.2208 20.3996 9.55 20.3996 9.9V19.2C20.3996 19.8168 20.1872 20.3376 19.7624 20.7624C19.3372 21.1876 18.8162 21.4002 18.1994 21.4002H5.79981ZM5.79981 19.2H18.1994V9.825L11.9996 5.2998L5.79981 9.825V19.2Z"/>
</svg>
