<svg width="8" height="10" viewBox="0 0 8 10" xmlns="http://www.w3.org/2000/svg">
<path d="M2.6664 4.96645L6.5832 1.04965C6.75013 0.883249 6.94187 0.800049 7.1584 0.800049C7.37493 0.800049 7.56667 0.883249 7.7336 1.04965C7.9112 1.22778 8 1.42512 8 1.64165C8 1.85818 7.9112 2.04992 7.7336 2.21685L3.2496 6.71685C3.0832 6.88325 2.88613 6.96645 2.6584 6.96645C2.43067 6.96645 2.23333 6.88325 2.0664 6.71685L0.2496 4.90005C0.0831998 4.73312 0 4.54138 0 4.32485C0 4.10832 0.0888001 3.91125 0.2664 3.73365C0.433333 3.56672 0.625067 3.48325 0.8416 3.48325C1.05813 3.48325 1.25547 3.56672 1.4336 3.73365L2.6664 4.96645Z" fill="#FFFFFF"/>
</svg>