<svg width="24" height="24" viewBox="0 0 24 24" fill="none" xmlns="http://www.w3.org/2000/svg">
<mask id="mask0_159_3387" style="mask-type:alpha" maskUnits="userSpaceOnUse" x="0" y="0" width="24" height="24">
<rect width="24" height="24"/>
</mask>
<g mask="url(#mask0_159_3387)">
<path d="M4.17539 20.475C3.42539 20.475 2.79639 20.2207 2.28839 19.712C1.77972 19.204 1.52539 18.575 1.52539 17.825V6.17502C1.52539 5.42502 1.77972 4.79569 2.28839 4.28702C2.79639 3.77902 3.42539 3.52502 4.17539 3.52502H19.8254C20.5754 3.52502 21.2047 3.77902 21.7134 4.28702C22.2214 4.79569 22.4754 5.42502 22.4754 6.17502V17.825C22.4754 18.575 22.2214 19.204 21.7134 19.712C21.2047 20.2207 20.5754 20.475 19.8254 20.475H4.17539ZM19.8254 8.60002L12.7004 13.15C12.6004 13.2167 12.4881 13.2667 12.3634 13.3C12.2381 13.3334 12.1171 13.35 12.0004 13.35C11.8837 13.35 11.7631 13.3334 11.6384 13.3C11.5131 13.2667 11.4004 13.2167 11.3004 13.15L4.17539 8.60002V17.825H19.8254V8.60002ZM12.0004 11.175L19.8254 6.17502H4.17539L12.0004 11.175Z"/>
</g>
</svg>
