<svg width="24" height="24" viewBox="0 0 24 24" fill="none" xmlns="http://www.w3.org/2000/svg">
<mask id="mask0_159_3386" style="mask-type:alpha" maskUnits="userSpaceOnUse" x="0" y="0" width="24" height="24">
<rect width="24" height="24"/>
</mask>
<g mask="url(#mask0_159_3386)">
<path d="M19.9754 21.45C17.7587 21.45 15.6004 20.954 13.5004 19.962C11.4004 18.9707 9.54206 17.6627 7.92539 16.038C6.30872 14.4127 5.00472 12.554 4.01339 10.462C3.02139 8.37067 2.52539 6.21667 2.52539 4C2.52539 3.58333 2.67139 3.22933 2.96339 2.938C3.25472 2.646 3.60872 2.5 4.02539 2.5H8.07539C8.52539 2.5 8.89639 2.61667 9.18839 2.85C9.47972 3.08333 9.67539 3.41667 9.77539 3.85L10.4004 7.05C10.4837 7.43333 10.4837 7.77067 10.4004 8.062C10.3171 8.354 10.1504 8.61667 9.90039 8.85L7.37539 11.175C8.00872 12.2083 8.77972 13.179 9.68839 14.087C10.5964 14.9957 11.5837 15.775 12.6504 16.425L15.1004 14.025C15.3671 13.775 15.6671 13.604 16.0004 13.512C16.3337 13.4207 16.6837 13.4083 17.0504 13.475L20.1254 14.15C20.5587 14.25 20.8921 14.4373 21.1254 14.712C21.3587 14.9873 21.4754 15.3417 21.4754 15.775V19.925C21.4754 20.3583 21.3297 20.7207 21.0384 21.012C20.7464 21.304 20.3921 21.45 19.9754 21.45ZM6.10039 8.75L7.75039 7.225L7.35039 5.15H5.22539C5.29206 5.76667 5.39206 6.375 5.52539 6.975C5.65872 7.575 5.85039 8.16667 6.10039 8.75ZM18.8254 18.7V16.575L16.7504 16.125L15.1004 17.75C15.7004 18 16.3087 18.2043 16.9254 18.363C17.5421 18.521 18.1754 18.6333 18.8254 18.7Z"/>
</g>
</svg>
