<svg width="24" height="24" viewBox="0 0 24 24" fill="none" xmlns="http://www.w3.org/2000/svg">
<mask id="mask0_186_4368" style="mask-type:alpha" maskUnits="userSpaceOnUse" x="0" y="0" width="24" height="24">
<rect width="24" height="24"/>
</mask>
<g mask="url(#mask0_186_4368)">
<path d="M14.0001 22.475H10.0001C9.68348 22.475 9.39581 22.3627 9.13715 22.138C8.87915 21.9127 8.73348 21.6417 8.70015 21.325L8.40015 19.125C8.26681 19.075 8.13348 19.0084 8.00015 18.925C7.86681 18.8417 7.74181 18.7584 7.62515 18.675L5.57515 19.525C5.25848 19.6584 4.94615 19.675 4.63815 19.575C4.32948 19.475 4.08348 19.275 3.90015 18.975L1.92515 15.525C1.75848 15.225 1.70448 14.9084 1.76315 14.575C1.82115 14.2417 1.98348 13.9834 2.25015 13.8L4.02515 12.45C4.00848 12.3667 4.00015 12.2917 4.00015 12.225V11.775C4.00015 11.7084 4.00848 11.6334 4.02515 11.55L2.25015 10.2C1.98348 10 1.82115 9.73336 1.76315 9.40002C1.70448 9.06669 1.75848 8.75836 1.92515 8.47502L3.90015 5.02502C4.06681 4.72502 4.30848 4.52902 4.62515 4.43702C4.94181 4.34569 5.25848 4.35836 5.57515 4.47502L7.65015 5.35002C7.76681 5.25002 7.88781 5.16236 8.01314 5.08702C8.13781 5.01236 8.26681 4.95002 8.40015 4.90002L8.70015 2.67502C8.73348 2.34169 8.87515 2.06669 9.12515 1.85002C9.37515 1.63336 9.66681 1.52502 10.0001 1.52502H14.0001C14.3335 1.52502 14.6251 1.63336 14.8751 1.85002C15.1251 2.06669 15.2668 2.34169 15.3001 2.67502L15.6001 4.90002C15.7335 4.95002 15.8668 5.01236 16.0001 5.08702C16.1335 5.16236 16.2585 5.25002 16.3751 5.35002L18.4251 4.47502C18.7418 4.35836 19.0545 4.35002 19.3631 4.45002C19.6711 4.55002 19.9168 4.74169 20.1001 5.02502L22.1001 8.47502C22.2668 8.77502 22.3168 9.09169 22.2501 9.42502C22.1835 9.75836 22.0168 10.0167 21.7501 10.2L19.9751 11.55V12.225C19.9751 12.2917 19.9668 12.3667 19.9501 12.45L21.7251 13.8C21.9918 13.9834 22.1541 14.2417 22.2121 14.575C22.2708 14.9084 22.2168 15.225 22.0501 15.525L20.0501 18.975C19.8835 19.2584 19.6418 19.454 19.3251 19.562C19.0085 19.6707 18.6918 19.6584 18.3751 19.525L16.3501 18.675C16.2335 18.7584 16.1128 18.8417 15.9881 18.925C15.8628 19.0084 15.7335 19.075 15.6001 19.125L15.3001 21.325C15.2668 21.6417 15.1251 21.9127 14.8751 22.138C14.6251 22.3627 14.3335 22.475 14.0001 22.475ZM12.0001 15.5C12.9668 15.5 13.7918 15.1584 14.4751 14.475C15.1585 13.7917 15.5001 12.9667 15.5001 12C15.5001 11.0334 15.1585 10.2084 14.4751 9.52502C13.7918 8.84169 12.9668 8.50002 12.0001 8.50002C11.0335 8.50002 10.2085 8.84169 9.52515 9.52502C8.84181 10.2084 8.50015 11.0334 8.50015 12C8.50015 12.9667 8.84181 13.7917 9.52515 14.475C10.2085 15.1584 11.0335 15.5 12.0001 15.5ZM12.0001 13.5C11.5835 13.5 11.2295 13.354 10.9381 13.062C10.6461 12.7707 10.5001 12.4167 10.5001 12C10.5001 11.5834 10.6461 11.2294 10.9381 10.938C11.2295 10.646 11.5835 10.5 12.0001 10.5C12.4168 10.5 12.7708 10.646 13.0621 10.938C13.3541 11.2294 13.5001 11.5834 13.5001 12C13.5001 12.4167 13.3541 12.7707 13.0621 13.062C12.7708 13.354 12.4168 13.5 12.0001 13.5ZM11.1501 19.825H12.8001L13.1751 17.2C13.6918 17.0667 14.1835 16.871 14.6501 16.613C15.1168 16.3544 15.5335 16.025 15.9001 15.625L18.3751 16.65L19.1751 15.2L17.0751 13.6C17.1585 13.35 17.2208 13.0917 17.2621 12.825C17.3041 12.5584 17.3251 12.2834 17.3251 12C17.3251 11.7167 17.3041 11.4417 17.2621 11.175C17.2208 10.9084 17.1585 10.65 17.0751 10.4L19.2001 8.80002L18.3751 7.35002L15.9251 8.40002C15.5585 8.00002 15.1418 7.66236 14.6751 7.38702C14.2085 7.11236 13.7085 6.91669 13.1751 6.80002L12.8501 4.17502H11.1751L10.8501 6.77502C10.3001 6.90836 9.79181 7.10836 9.32515 7.37502C8.85848 7.64169 8.43348 7.97502 8.05015 8.37502L5.62515 7.35002L4.80015 8.80002L6.90015 10.375C6.81681 10.6417 6.75448 10.904 6.71315 11.162C6.67115 11.4207 6.65015 11.7 6.65015 12C6.65015 12.2834 6.67115 12.5584 6.71315 12.825C6.75448 13.0917 6.81681 13.3584 6.90015 13.625L4.80015 15.2L5.62515 16.65L8.05015 15.6C8.43348 16 8.86281 16.3374 9.33815 16.612C9.81281 16.8874 10.3168 17.0917 10.8501 17.225L11.1501 19.825Z"/>
</g>
</svg>
