<svg width="24" height="24" viewBox="0 0 24 24" fill="none" xmlns="http://www.w3.org/2000/svg">
<mask id="mask0_186_3897" style="mask-type:alpha" maskUnits="userSpaceOnUse" x="0" y="0" width="24" height="24">
<rect width="24" height="24"/>
</mask>
<g mask="url(#mask0_186_3897)">
<path d="M12.0004 22.475C10.5671 22.475 9.21306 22.2 7.93839 21.65C6.66306 21.1 5.55039 20.35 4.60039 19.4C3.65039 18.45 2.90039 17.3374 2.35039 16.062C1.80039 14.7874 1.52539 13.4334 1.52539 12C1.52539 10.5667 1.80039 9.21236 2.35039 7.93702C2.90039 6.66236 3.65039 5.55002 4.60039 4.60002C5.55039 3.65002 6.66306 2.90002 7.93839 2.35002C9.21306 1.80002 10.5671 1.52502 12.0004 1.52502C13.4337 1.52502 14.7877 1.80002 16.0624 2.35002C17.3377 2.90002 18.4504 3.65002 19.4004 4.60002C20.3504 5.55002 21.1004 6.66236 21.6504 7.93702C22.2004 9.21236 22.4754 10.5667 22.4754 12C22.4754 13.4334 22.2004 14.7874 21.6504 16.062C21.1004 17.3374 20.3504 18.45 19.4004 19.4C18.4504 20.35 17.3377 21.1 16.0624 21.65C14.7877 22.2 13.4337 22.475 12.0004 22.475ZM11.9754 19.8C12.3754 19.2167 12.7337 18.6 13.0504 17.95C13.3671 17.3 13.6254 16.625 13.8254 15.925H10.1754C10.3754 16.625 10.6254 17.3 10.9254 17.95C11.2254 18.6 11.5754 19.2167 11.9754 19.8ZM9.45039 19.4C9.13372 18.8667 8.87106 18.304 8.66239 17.712C8.45439 17.1207 8.27539 16.525 8.12539 15.925H5.25039C5.71706 16.725 6.30472 17.4294 7.01339 18.038C7.72139 18.646 8.53372 19.1 9.45039 19.4ZM14.5254 19.4C15.4254 19.1 16.2377 18.646 16.9624 18.038C17.6877 17.4294 18.2754 16.725 18.7254 15.925H15.8754C15.7254 16.525 15.5421 17.1207 15.3254 17.712C15.1087 18.304 14.8421 18.8667 14.5254 19.4ZM4.42539 13.95H7.72539C7.67539 13.6167 7.63806 13.2917 7.61339 12.975C7.58806 12.6584 7.57539 12.3334 7.57539 12C7.57539 11.65 7.58806 11.3207 7.61339 11.012C7.63806 10.704 7.67539 10.3834 7.72539 10.05H4.42539C4.34206 10.3667 4.27939 10.6834 4.23739 11C4.19606 11.3167 4.17539 11.65 4.17539 12C4.17539 12.3334 4.19606 12.6627 4.23739 12.988C4.27939 13.3127 4.34206 13.6334 4.42539 13.95ZM9.72539 13.95H14.2754C14.3254 13.6167 14.3547 13.2917 14.3634 12.975C14.3714 12.6584 14.3754 12.3334 14.3754 12C14.3754 11.65 14.3714 11.3207 14.3634 11.012C14.3547 10.704 14.3254 10.3834 14.2754 10.05H9.72539C9.67539 10.3834 9.63806 10.704 9.61339 11.012C9.58806 11.3207 9.57539 11.65 9.57539 12C9.57539 12.3334 9.58806 12.6584 9.61339 12.975C9.63806 13.2917 9.67539 13.6167 9.72539 13.95ZM16.2754 13.95H19.5504C19.6337 13.6334 19.6964 13.3127 19.7384 12.988C19.7797 12.6627 19.8004 12.3334 19.8004 12C19.8004 11.65 19.7797 11.3167 19.7384 11C19.6964 10.6834 19.6337 10.3667 19.5504 10.05H16.2754C16.3087 10.3834 16.3337 10.704 16.3504 11.012C16.3671 11.3207 16.3754 11.65 16.3754 12C16.3754 12.3334 16.3671 12.6584 16.3504 12.975C16.3337 13.2917 16.3087 13.6167 16.2754 13.95ZM15.8754 8.07502H18.7254C18.2754 7.25836 17.6877 6.55002 16.9624 5.95002C16.2377 5.35002 15.4254 4.90002 14.5254 4.60002C14.8421 5.13336 15.1087 5.69569 15.3254 6.28702C15.5421 6.87902 15.7254 7.47502 15.8754 8.07502ZM10.1754 8.07502H13.8254C13.6254 7.35836 13.3671 6.67902 13.0504 6.03702C12.7337 5.39569 12.3754 4.78336 11.9754 4.20002C11.5754 4.78336 11.2254 5.39569 10.9254 6.03702C10.6254 6.67902 10.3754 7.35836 10.1754 8.07502ZM5.25039 8.07502H8.12539C8.27539 7.47502 8.45439 6.87902 8.66239 6.28702C8.87106 5.69569 9.13372 5.13336 9.45039 4.60002C8.53372 4.90002 7.72139 5.35002 7.01339 5.95002C6.30472 6.55002 5.71706 7.25836 5.25039 8.07502Z"/>
</g>
</svg>
