<svg width="24" height="24" viewBox="0 0 24 24" fill="none" xmlns="http://www.w3.org/2000/svg">
<path d="M6.88516 21.5245C6.13516 21.5245 5.50616 21.2702 4.99816 20.7615C4.48949 20.2535 4.23516 19.6245 4.23516 18.8745V6.19949C3.86849 6.19949 3.55616 6.07015 3.29816 5.81149C3.03949 5.55349 2.91016 5.24115 2.91016 4.87449C2.91016 4.50782 3.03949 4.19515 3.29816 3.93649C3.55616 3.67849 3.86849 3.54949 4.23516 3.54949H8.73516C8.73516 3.18282 8.86016 2.87015 9.11016 2.61149C9.36016 2.35349 9.67682 2.22449 10.0602 2.22449H14.0102C14.3935 2.22449 14.7102 2.35349 14.9602 2.61149C15.2102 2.87015 15.3352 3.18282 15.3352 3.54949H19.8352C20.2018 3.54949 20.5145 3.67849 20.7732 3.93649C21.0312 4.19515 21.1602 4.50782 21.1602 4.87449C21.1602 5.24115 21.0312 5.55349 20.7732 5.81149C20.5145 6.07015 20.2018 6.19949 19.8352 6.19949V18.8745C19.8352 19.6245 19.5812 20.2535 19.0732 20.7615C18.5645 21.2702 17.9352 21.5245 17.1852 21.5245H6.88516ZM6.88516 6.19949V18.8745H17.1852V6.19949H6.88516ZM8.78516 15.8745C8.78516 16.1912 8.89782 16.4622 9.12316 16.6875C9.34782 16.9122 9.61849 17.0245 9.93516 17.0245C10.2518 17.0245 10.5268 16.9122 10.7602 16.6875C10.9935 16.4622 11.1102 16.1912 11.1102 15.8745V9.19949C11.1102 8.88282 10.9935 8.60782 10.7602 8.37449C10.5268 8.14115 10.2518 8.02449 9.93516 8.02449C9.61849 8.02449 9.34782 8.14115 9.12316 8.37449C8.89782 8.60782 8.78516 8.88282 8.78516 9.19949V15.8745ZM12.9602 15.8745C12.9602 16.1912 13.0768 16.4622 13.3102 16.6875C13.5435 16.9122 13.8185 17.0245 14.1352 17.0245C14.4518 17.0245 14.7228 16.9122 14.9482 16.6875C15.1728 16.4622 15.2852 16.1912 15.2852 15.8745V9.19949C15.2852 8.88282 15.1728 8.60782 14.9482 8.37449C14.7228 8.14115 14.4518 8.02449 14.1352 8.02449C13.8185 8.02449 13.5435 8.14115 13.3102 8.37449C13.0768 8.60782 12.9602 8.88282 12.9602 9.19949V15.8745Z"/>
</svg>
