<svg width="24" height="24" viewBox="0 0 24 24" fill="none" xmlns="http://www.w3.org/2000/svg">
<mask id="mask0_159_3384" style="mask-type:alpha" maskUnits="userSpaceOnUse" x="0" y="0" width="24" height="24">
<rect width="24" height="24"/>
</mask>
<g mask="url(#mask0_159_3384)">
<path d="M12.0004 16C13.2504 16 14.3131 15.5627 15.1884 14.688C16.0631 13.8127 16.5004 12.75 16.5004 11.5C16.5004 10.25 16.0631 9.18738 15.1884 8.31205C14.3131 7.43738 13.2504 7.00005 12.0004 7.00005C10.7504 7.00005 9.68773 7.43738 8.81239 8.31205C7.93772 9.18738 7.50039 10.25 7.50039 11.5C7.50039 12.75 7.93772 13.8127 8.81239 14.688C9.68773 15.5627 10.7504 16 12.0004 16ZM12.0004 13.9C11.3337 13.9 10.7671 13.6667 10.3004 13.2C9.83372 12.7334 9.60039 12.1667 9.60039 11.5C9.60039 10.8334 9.83372 10.2667 10.3004 9.80005C10.7671 9.33338 11.3337 9.10005 12.0004 9.10005C12.6671 9.10005 13.2337 9.33338 13.7004 9.80005C14.1671 10.2667 14.4004 10.8334 14.4004 11.5C14.4004 12.1667 14.1671 12.7334 13.7004 13.2C13.2337 13.6667 12.6671 13.9 12.0004 13.9ZM12.0004 19.45C9.61706 19.45 7.43806 18.8084 5.46339 17.525C3.48806 16.2417 1.98372 14.5334 0.950391 12.4C0.883724 12.2834 0.837724 12.146 0.812391 11.988C0.787724 11.8294 0.775391 11.6667 0.775391 11.5C0.775391 11.3334 0.787724 11.1707 0.812391 11.012C0.837724 10.854 0.883724 10.7167 0.950391 10.6C1.98372 8.46672 3.48806 6.75838 5.46339 5.47505C7.43806 4.19172 9.61706 3.55005 12.0004 3.55005C14.3837 3.55005 16.5631 4.19172 18.5384 5.47505C20.5131 6.75838 22.0171 8.46672 23.0504 10.6C23.1171 10.7167 23.1631 10.854 23.1884 11.012C23.2131 11.1707 23.2254 11.3334 23.2254 11.5C23.2254 11.6667 23.2131 11.8294 23.1884 11.988C23.1631 12.146 23.1171 12.2834 23.0504 12.4C22.0171 14.5334 20.5131 16.2417 18.5384 17.525C16.5631 18.8084 14.3837 19.45 12.0004 19.45ZM12.0004 17C13.8671 17 15.5837 16.5 17.1504 15.5C18.7171 14.5 19.9171 13.1667 20.7504 11.5C19.9171 9.83338 18.7171 8.50005 17.1504 7.50005C15.5837 6.50005 13.8671 6.00005 12.0004 6.00005C10.1337 6.00005 8.41706 6.50005 6.85039 7.50005C5.28372 8.50005 4.08372 9.83338 3.25039 11.5C4.08372 13.1667 5.28372 14.5 6.85039 15.5C8.41706 16.5 10.1337 17 12.0004 17Z"/>
</g>
</svg>
