<svg width="28" height="40" viewBox="0 0 28 40" fill="none" xmlns="http://www.w3.org/2000/svg">
<path fill-rule="evenodd" clip-rule="evenodd" d="M0 15.9998V39.4998C0 39.7759 0.223858 39.9998 0.5 39.9998H16C22.6274 39.9998 28 34.6272 28 27.9998C28 21.3723 22.6274 15.9998 16 15.9998H0ZM4 19.9998V35.9998H15.4286C20.1625 35.9998 24 32.418 24 27.9998C24 23.5815 20.1625 19.9998 15.4286 19.9998H4Z" fill="url(#paint0_linear_230_536)"/>
<path d="M24.5421 19.572C23.5861 18.6032 22.4665 17.7962 21.228 17.1958C20.3534 18.5185 19.0777 19.5856 17.5591 20.2492C19.1862 20.6376 20.6268 21.4606 21.7308 22.5778C22.8313 21.7457 23.7839 20.7283 24.5421 19.572Z" fill="#2A4051"/>
<path d="M0.5 0C0.223858 0 0 0.223858 0 0.5V16H4V4H12.9286C17.6625 4 21.5 7.58173 21.5 12C21.5 16.4183 17.6625 20 12.9286 20H4V24H13.5C20.1274 24 25.5 18.6274 25.5 12C25.5 5.37256 20.1274 0 13.5 0H0.5Z" fill="url(#paint1_linear_230_536)"/>
<path d="M4 24V20H13L7.5 24H4Z" fill="#2A4051"/>
<defs>
<linearGradient id="paint0_linear_230_536" x1="28" y1="11.7498" x2="-1.10644" y2="33.5205" gradientUnits="userSpaceOnUse">
<stop stop-color="#FFF06A"/>
<stop offset="0.682292" stop-color="#F49200"/>
</linearGradient>
<linearGradient id="paint1_linear_230_536" x1="25.5" y1="-4.25" x2="-2.73577" y2="14.9838" gradientUnits="userSpaceOnUse">
<stop stop-color="#B3DFFF"/>
<stop offset="0.682292" stop-color="#22A3FF"/>
</linearGradient>
</defs>
</svg>
